<mxfile host="www.draw.io" modified="2019-10-28T03:33:12.157Z" agent="Mozilla/5.0 (Macintosh; Intel Mac OS X 10_14_4) AppleWebKit/605.1.15 (KHTML, like Gecko) Version/12.1 Safari/605.1.15" etag="6UcXUEZqvU0FLRIO333p" version="12.1.7" type="github" pages="1">
  <diagram id="nWPhAt9rJEEcSky3-5wR" name="Page-1">
    <mxGraphModel dx="766" dy="547" grid="1" gridSize="10" guides="1" tooltips="1" connect="1" arrows="1" fold="1" page="1" pageScale="1" pageWidth="850" pageHeight="1100" math="0" shadow="0">
      <root>
        <mxCell id="0"/>
        <mxCell id="1" parent="0"/>
        <mxCell id="z8gjGf1V-ILWLqtlMs_v-4" style="edgeStyle=orthogonalEdgeStyle;rounded=0;orthogonalLoop=1;jettySize=auto;html=1;entryX=0.5;entryY=0;entryDx=0;entryDy=0;fontSize=18;" edge="1" parent="1" source="z8gjGf1V-ILWLqtlMs_v-1" target="z8gjGf1V-ILWLqtlMs_v-2">
          <mxGeometry relative="1" as="geometry"/>
        </mxCell>
        <mxCell id="z8gjGf1V-ILWLqtlMs_v-1" value="iCloud db" style="rounded=0;whiteSpace=wrap;html=1;fillColor=#dae8fc;strokeColor=#6c8ebf;fontSize=18;" vertex="1" parent="1">
          <mxGeometry x="120" y="50" width="120" height="60" as="geometry"/>
        </mxCell>
        <mxCell id="z8gjGf1V-ILWLqtlMs_v-2" value="app in-memory" style="rounded=0;whiteSpace=wrap;html=1;fillColor=#dae8fc;strokeColor=#6c8ebf;fontSize=18;" vertex="1" parent="1">
          <mxGeometry x="120" y="170" width="180" height="90" as="geometry"/>
        </mxCell>
        <mxCell id="z8gjGf1V-ILWLqtlMs_v-9" style="edgeStyle=orthogonalEdgeStyle;rounded=0;orthogonalLoop=1;jettySize=auto;html=1;entryX=0.5;entryY=0;entryDx=0;entryDy=0;fontSize=18;" edge="1" parent="1" source="z8gjGf1V-ILWLqtlMs_v-6" target="z8gjGf1V-ILWLqtlMs_v-8">
          <mxGeometry relative="1" as="geometry"/>
        </mxCell>
        <mxCell id="z8gjGf1V-ILWLqtlMs_v-6" value="iCloud db" style="rounded=0;whiteSpace=wrap;html=1;fillColor=#dae8fc;strokeColor=#6c8ebf;fontSize=18;" vertex="1" parent="1">
          <mxGeometry x="490" y="50" width="120" height="60" as="geometry"/>
        </mxCell>
        <mxCell id="z8gjGf1V-ILWLqtlMs_v-7" value="app in-memory" style="rounded=0;whiteSpace=wrap;html=1;fillColor=#dae8fc;strokeColor=#6c8ebf;fontSize=18;" vertex="1" parent="1">
          <mxGeometry x="650" y="130" width="180" height="100" as="geometry"/>
        </mxCell>
        <mxCell id="z8gjGf1V-ILWLqtlMs_v-10" style="edgeStyle=orthogonalEdgeStyle;rounded=0;orthogonalLoop=1;jettySize=auto;html=1;entryX=0.5;entryY=1;entryDx=0;entryDy=0;fontSize=18;" edge="1" parent="1" source="z8gjGf1V-ILWLqtlMs_v-8" target="z8gjGf1V-ILWLqtlMs_v-7">
          <mxGeometry relative="1" as="geometry"/>
        </mxCell>
        <mxCell id="z8gjGf1V-ILWLqtlMs_v-8" value="CoreData db" style="rounded=0;whiteSpace=wrap;html=1;fillColor=#dae8fc;strokeColor=#6c8ebf;fontSize=18;" vertex="1" parent="1">
          <mxGeometry x="490" y="250" width="120" height="60" as="geometry"/>
        </mxCell>
        <mxCell id="z8gjGf1V-ILWLqtlMs_v-11" value="Without local caching" style="text;html=1;strokeColor=none;fillColor=none;align=center;verticalAlign=middle;whiteSpace=wrap;rounded=0;fontSize=18;" vertex="1" parent="1">
          <mxGeometry x="115" y="290" width="190" height="30" as="geometry"/>
        </mxCell>
        <mxCell id="z8gjGf1V-ILWLqtlMs_v-12" value="With local caching" style="text;html=1;strokeColor=none;fillColor=none;align=center;verticalAlign=middle;whiteSpace=wrap;rounded=0;fontSize=18;" vertex="1" parent="1">
          <mxGeometry x="570" y="340" width="190" height="30" as="geometry"/>
        </mxCell>
      </root>
    </mxGraphModel>
  </diagram>
</mxfile>
